<?xml version="1.0" encoding="UTF-8"?>
<svg version="1.1" xmlns="http://www.w3.org/2000/svg" width="1000" height="400">
<path d="M0 0 C20.79419411 14.52983438 30.97481257 35.90170892 35.57373047 60.29003906 C40.76501291 92.0328449 37.52817585 122.20199842 19.26953125 149.1328125 C16.82756317 152.51631405 14.24841872 155.64421991 11.36328125 158.65625 C7.41290901 163.32380292 8.6536938 171.0425064 8.48828125 176.83203125 C8.46776703 177.52143799 8.44725281 178.21084473 8.42611694 178.92114258 C8.08636779 190.62520887 7.91983099 202.33094135 7.87454224 214.03973389 C7.8671386 215.79337221 7.85655051 217.54700049 7.84249878 219.30059814 C7.32402857 238.69539503 7.32402857 238.69539503 12.05078125 257.20703125 C27.84147338 256.84815188 42.78025659 240.09758622 53.14453125 229.36328125 C64.44797963 217.30425477 73.44841597 203.2575612 82.05078125 189.20703125 C83.67644731 189.68393329 85.30129436 190.16362791 86.92578125 190.64453125 C87.83070313 190.91136719 88.735625 191.17820313 89.66796875 191.453125 C92.05078125 192.20703125 92.05078125 192.20703125 94.05078125 193.20703125 C92.52505376 198.87401907 89.6970871 203.32846755 86.55078125 208.20703125 C86.01251709 209.04862793 85.47425293 209.89022461 84.91967773 210.75732422 C80.19732738 218.08585434 75.26250497 225.21951619 70.05078125 232.20703125 C69.53870117 232.89571289 69.02662109 233.58439453 68.49902344 234.29394531 C62.0343378 242.95577901 55.41876213 251.28790219 48.05078125 259.20703125 C46.83758435 260.59863946 45.62901911 261.99430313 44.42578125 263.39453125 C38.71787191 269.91040949 32.62178234 275.53878139 25.8515625 280.953125 C24.11452813 282.35098948 22.3986443 283.77614909 20.71875 285.2421875 C9.84580825 294.55920573 -5.05890707 303.1329853 -19.57421875 304.01953125 C-20.82460938 304.10847656 -22.075 304.19742187 -23.36328125 304.2890625 C-26.98109907 304.20630196 -29.60587453 303.53922533 -32.94921875 302.20703125 C-32.94921875 301.54703125 -32.94921875 300.88703125 -32.94921875 300.20703125 C-33.54992187 299.95566406 -34.150625 299.70429688 -34.76953125 299.4453125 C-42.32789909 295.15140102 -44.59936151 284.07377017 -46.82617188 276.25390625 C-50.08367838 263.81457474 -51.46045109 250.95510546 -52.94921875 238.20703125 C-53.48325317 239.0731604 -53.48325317 239.0731604 -54.02807617 239.95678711 C-62.04672391 252.90485782 -70.3460596 265.37900548 -79.94921875 277.20703125 C-80.45694824 277.83577148 -80.96467773 278.46451172 -81.48779297 279.11230469 C-96.62199841 297.71284115 -116.35305226 315.41552732 -140.94921875 319.20703125 C-144.14349158 319.50029542 -147.30522472 319.57683012 -150.51171875 319.58203125 C-151.31029297 319.60652344 -152.10886719 319.63101562 -152.93164062 319.65625 C-159.47716692 319.68825746 -164.74257474 318.08318675 -169.6784668 313.65600586 C-183.87254455 298.94387873 -184.71583939 272.2907286 -186.94921875 253.20703125 C-187.03771591 252.45998428 -187.12621307 251.71293732 -187.21739197 250.94325256 C-188.1239908 242.36318259 -188.11213776 233.79555292 -188.1171875 225.1796875 C-188.1211381 223.52010554 -188.12528277 221.86052402 -188.12960815 220.20094299 C-188.13888937 215.79677588 -188.14000418 211.39264721 -188.13789749 206.98847198 C-188.13671675 204.26491676 -188.13725016 201.5413654 -188.13790894 198.81781006 C-188.13468592 136.84753786 -188.13468592 136.84753786 -184.94921875 108.20703125 C-185.86276627 108.31361305 -185.86276627 108.31361305 -186.79476929 108.42234802 C-192.78095126 109.07720885 -198.65714987 109.34241667 -204.67578125 109.3046875 C-205.54947357 109.30327255 -206.42316589 109.3018576 -207.32333374 109.30039978 C-210.07366578 109.29486799 -212.82391193 109.28232899 -215.57421875 109.26953125 C-217.45572798 109.26450741 -219.3372385 109.25994606 -221.21875 109.25585938 C-225.79560527 109.24492104 -230.37239752 109.22770487 -234.94921875 109.20703125 C-235.95418727 106.19212568 -236.05257178 104.16521433 -236.01171875 101.01953125 C-236.00269531 100.11847656 -235.99367188 99.21742188 -235.984375 98.2890625 C-235.97277344 97.60199219 -235.96117187 96.91492188 -235.94921875 96.20703125 C-218.67027325 93.24847799 -201.38872878 90.98227397 -183.94921875 89.20703125 C-183.91163452 88.15298096 -183.91163452 88.15298096 -183.87329102 87.07763672 C-183.75384934 83.74572843 -183.63281606 80.41387977 -183.51171875 77.08203125 C-183.46732666 75.84227539 -183.42293457 74.60251953 -183.37719727 73.32519531 C-183.17667813 67.84316437 -182.97330395 62.36360809 -182.66015625 56.88671875 C-181.61603148 38.34159735 -181.8580232 19.77444616 -181.94921875 1.20703125 C-172.01989757 -3.75762934 -156.17833917 -0.68673308 -145.94921875 2.20703125 C-136.99667351 5.46899587 -129.49054397 10.69439248 -125.07421875 19.26953125 C-118.00366019 34.97661101 -119.89236386 51.27476487 -120.94921875 68.01953125 C-121.04593346 69.59828525 -121.1422898 71.17706124 -121.23828125 72.75585938 C-121.47114246 76.57318207 -121.70880712 80.39017694 -121.94921875 84.20703125 C-121.37776123 84.13556885 -120.80630371 84.06410645 -120.2175293 83.99047852 C-110.73922342 82.95915093 -101.28113071 83.09621862 -91.76171875 83.14453125 C-90.02929817 83.14955746 -88.29687618 83.15411838 -86.56445312 83.15820312 C-82.35933947 83.16911723 -78.15429509 83.18631973 -73.94921875 83.20703125 C-73.61921875 87.49703125 -73.28921875 91.78703125 -72.94921875 96.20703125 C-83.85006219 98.4780403 -94.77940844 100.02892652 -105.82421875 101.39453125 C-106.5527002 101.48488647 -107.28118164 101.5752417 -108.03173828 101.66833496 C-120.48978543 103.20703125 -120.48978543 103.20703125 -122.94921875 103.20703125 C-124.49786011 137.80574324 -125.16348043 172.32735036 -124.73197556 206.96001053 C-124.69939649 209.62996479 -124.6703119 212.29993889 -124.64187622 214.96994019 C-124.59513556 219.22748269 -124.5371235 223.48473389 -124.47010231 227.74200439 C-124.44630375 229.30557486 -124.42505004 230.86918676 -124.40671349 232.43283081 C-124.20905919 248.45875031 -123.53755078 264.70789684 -115.94921875 279.20703125 C-109.37007935 279.9069397 -105.2734185 278.04010422 -99.94921875 274.20703125 C-85.41464504 262.244519 -74.92571 244.22727713 -65.69799805 228.07543945 C-63.94921875 225.20703125 -63.94921875 225.20703125 -61.58520508 222.17260742 C-52.05762611 209.18778428 -53.87632765 193.47911855 -54.10770416 178.15437698 C-54.18706741 171.63113719 -54.14352813 165.10661528 -54.11838531 158.58309746 C-54.11236521 156.9120474 -54.10787052 155.24099117 -54.10488129 153.56993294 C-54.07120512 136.091195 -53.23819189 118.70583139 -52.07421875 101.26953125 C-52.02921108 100.58839642 -51.98420341 99.90726158 -51.93783188 99.2054863 C-51.32007842 89.8692762 -50.64822556 80.53748947 -49.94921875 71.20703125 C-49.81078732 69.3204815 -49.67243432 67.43392599 -49.53417969 65.54736328 C-48.45727223 51.04138009 -47.01374839 36.60967673 -44.94921875 22.20703125 C-44.79517578 21.13146973 -44.64113281 20.0559082 -44.48242188 18.94775391 C-41.59027888 0.18782634 -41.59027888 0.18782634 -34.94921875 -4.79296875 C-24.03412666 -11.47567819 -10.08513835 -6.13122981 0 0 Z M15.05078125 52.20703125 C13.62350903 66.24523375 12.48890187 80.28160856 11.61816406 94.36523438 C11.42502448 97.46919331 11.22251628 100.57245241 11.01953125 103.67578125 C10.28626357 115.20365467 9.85715772 126.65611663 10.05078125 138.20703125 C19.81768541 128.81866983 24.53337205 111.77910147 25.25390625 98.44921875 C25.5283804 83.29195197 24.80481437 66.66782802 17.05078125 53.20703125 C16.39078125 52.87703125 15.73078125 52.54703125 15.05078125 52.20703125 Z " fill="#FFFFFF" transform="translate(739.94921875,40.79296875)"/>
<path d="M0 0 C9.35058027 5.15850804 14.59927154 12.01090293 17.6875 22.16015625 C20.50707057 34.58100963 17.80917167 47.41522491 15.07113647 59.61026001 C9.9115132 82.71466393 6.8692645 106.01883653 4.91015625 129.60546875 C-0.69984375 129.60546875 -6.30984375 129.60546875 -12.08984375 129.60546875 C-10.62839014 106.54911505 -8.4124673 83.58828519 -6.08984375 60.60546875 C-9.48056135 62.21911105 -12.53347579 63.69046568 -15.2734375 66.27734375 C-15.80469238 66.77282715 -16.33594727 67.26831055 -16.88330078 67.77880859 C-17.42583496 68.29910645 -17.96836914 68.8194043 -18.52734375 69.35546875 C-19.10081543 69.89768066 -19.67428711 70.43989258 -20.26513672 70.99853516 C-21.38907409 72.06437637 -22.50998062 73.13342516 -23.62744141 74.20605469 C-24.7733137 75.30257221 -25.93460685 76.38297887 -27.1015625 77.45703125 C-41.15655057 90.72929602 -56.933137 112.10817573 -58.328125 132.00390625 C-58.83448406 159.13409162 -43.64974644 178.22067705 -25.7109375 196.93359375 C-22.05391888 200.68506706 -18.24054157 204.21973986 -14.29296875 207.6640625 C2.41142539 222.38406939 19.42418464 241.54637361 20.91015625 264.60546875 C21.02215653 277.33150041 18.41926097 287.96865136 9.91015625 297.60546875 C9.38550781 298.21132813 8.86085937 298.8171875 8.3203125 299.44140625 C-15.96802114 325.61565757 -64.82233228 323.24932575 -97.77148438 324.9597168 C-104.24896877 325.29801113 -110.66868348 325.65849298 -117.08984375 326.60546875 C-122.36042757 312.71029322 -125.41584313 293.23594344 -120.19921875 278.81640625 C-115.7615712 269.97236218 -109.46219503 264.69602263 -100.3125 261.21875 C-94.42386905 259.59394322 -88.28000742 259.35854639 -82.2109375 258.9921875 C-80.47723759 258.88052533 -78.74359678 258.76794243 -77.01000977 258.65454102 C-76.1133963 258.59597931 -75.21678284 258.5374176 -74.29299927 258.4770813 C-55.6426564 257.28421563 -55.6426564 257.28421563 -37.15234375 254.66796875 C-36.34659912 254.52254639 -35.54085449 254.37712402 -34.71069336 254.22729492 C-28.1864382 252.90226361 -20.63027696 251.14590196 -15.83984375 246.35546875 C-14.70320039 242.18777644 -15.24579567 239.39668602 -17.08984375 235.60546875 C-28.98747328 217.91211895 -45.95720569 205.78091084 -62.6015625 192.8828125 C-95.98984137 166.94735783 -95.98984137 166.94735783 -105.08984375 150.60546875 C-105.56164062 149.78304687 -106.0334375 148.960625 -106.51953125 148.11328125 C-115.13322201 132.16011434 -116.37291328 112.92994299 -111.40625 95.671875 C-101.07260134 62.56137372 -72.76510048 20.93559868 -42.08984375 3.60546875 C-27.91842879 -3.52910568 -15.05085216 -6.65818367 0 0 Z " fill="#FFFFFF" transform="translate(152.08984375,51.39453125)"/>
<path d="M0 0 C7.4624675 6.96050781 10.85560226 16.00424988 12 26 C12.34834109 37.03315471 11.75474821 47.99789858 11 59 C10.90316855 60.46871861 10.80681266 61.93746865 10.7109375 63.40625 C10.4794021 66.93787693 10.24156473 70.46904314 10 74 C10.57145752 73.9285376 11.14291504 73.8570752 11.73168945 73.78344727 C21.20999533 72.75211968 30.66808804 72.88918737 40.1875 72.9375 C41.91992058 72.94252621 43.65234257 72.94708713 45.38476562 72.95117188 C49.58987928 72.96208598 53.79492366 72.97928848 58 73 C58.33 77.29 58.66 81.58 59 86 C48.09915656 88.27100905 37.16981031 89.82189527 26.125 91.1875 C25.39651855 91.27785522 24.66803711 91.36821045 23.91748047 91.46130371 C11.45943332 93 11.45943332 93 9 93 C7.78905542 119.60000673 7.81232696 146.20677898 7.81469727 172.82910156 C7.81479977 179.15015823 7.80101696 185.4711048 7.78392506 191.79213524 C7.77275074 196.72875464 7.77077953 201.66534755 7.77130699 206.6019783 C7.77014011 208.93244439 7.76579255 211.26291145 7.75797462 213.59336472 C7.36628104 242.13704761 7.36628104 242.13704761 16 269 C23.21013536 269.60084461 27.97726278 267.52131289 33.49609375 262.91796875 C60.20795517 237.67933045 77.06176777 200.56958561 93 168 C96.40755272 169.92880342 99.74147635 171.8276509 103 174 C100.94262615 181.78130108 97.9787398 188.91164545 94.5625 196.1875 C93.76851807 197.88555786 93.76851807 197.88555786 92.95849609 199.61791992 C83.94848359 218.72719918 74.22460972 236.74193552 62 254 C61.484375 254.73331543 60.96875 255.46663086 60.4375 256.22216797 C44.49269453 278.73278688 23.75900623 301.14645654 -4 308 C-4.74121094 308.18820312 -5.48242188 308.37640625 -6.24609375 308.5703125 C-10.26879733 309.19796838 -14.24640909 309.2650359 -18.3125 309.3125 C-19.12912109 309.34150391 -19.94574219 309.37050781 -20.78710938 309.40039062 C-28.07861218 309.47592014 -33.32151399 307.55093906 -38.625 302.5 C-55.63148729 279.42385731 -56.15053589 242.67232985 -56.16796875 215.13671875 C-56.1719217 213.59508211 -56.17606652 212.05344595 -56.1803894 210.5118103 C-56.18967512 206.41468869 -56.19078388 202.3176084 -56.18867874 198.22047806 C-56.18749701 195.68107216 -56.18803199 193.14167042 -56.18869019 190.6022644 C-56.1869699 159.70264146 -55.79952654 128.79393546 -53 98 C-53.91354752 98.1065818 -53.91354752 98.1065818 -54.84555054 98.21531677 C-60.83173251 98.8701776 -66.70793112 99.13538542 -72.7265625 99.09765625 C-73.60025482 99.0962413 -74.47394714 99.09482635 -75.37411499 99.09336853 C-78.12444703 99.08783674 -80.87469318 99.07529774 -83.625 99.0625 C-85.50650923 99.05747616 -87.38801975 99.05291481 -89.26953125 99.04882812 C-93.84638652 99.03788979 -98.42317877 99.02067362 -103 99 C-103.80489089 95.98096289 -104.10855119 93.38148111 -104.0625 90.25 C-104.05347656 89.45078125 -104.04445313 88.6515625 -104.03515625 87.828125 C-104.02355469 87.22484375 -104.01195312 86.6215625 -104 86 C-86.71018252 83.20104241 -69.41489062 80.86941937 -52 79 C-51.96241577 78.02897339 -51.96241577 78.02897339 -51.92407227 77.03833008 C-51.84818671 75.08681517 -51.77180595 73.13531948 -51.69506836 71.18383789 C-51.60518035 68.89790142 -51.51617873 66.61192995 -51.42797852 64.32592773 C-51.22861612 59.26128208 -51.02792184 54.19943623 -50.7109375 49.140625 C-49.53080656 29.79061846 -49.91269768 10.37708628 -50 -9 C-35.73651014 -16.13174493 -11.54985127 -9.72619055 0 0 Z " fill="#FFFFFF" transform="translate(430,51)"/>
<path d="M0 0 C6.89610947 5.97860135 10.93746433 12.2093733 11.78515625 21.40625 C12.36634025 34.877797 7.5742096 46.5477799 -1.4609375 56.46484375 C-13.18397535 67.82814939 -28.03438055 69.60015571 -43.60546875 69.3828125 C-44.56066406 69.35960937 -45.51585937 69.33640625 -46.5 69.3125 C-46.44748036 72.79283199 -46.35226395 76.27080244 -46.25 79.75 C-46.23582031 80.72388672 -46.22164062 81.69777344 -46.20703125 82.70117188 C-45.98771213 89.25881366 -44.9497889 94.64986082 -41.5 100.3125 C-38.71360708 102.79766126 -37.05305926 103.2350717 -33.375 103.75 C-16.5240845 101.84747728 -2.15469811 89.93861746 9.7578125 78.74609375 C11.5 77.3125 11.5 77.3125 13.5 77.3125 C13.75910156 76.714375 14.01820313 76.11625 14.28515625 75.5 C15.60100533 73.13062544 16.83118191 71.99405124 18.9375 70.3125 C24.14624802 65.90582368 28.61933517 60.87913878 33.15820312 55.80712891 C34.40397059 54.41946726 35.66241646 53.04321622 36.921875 51.66796875 C46.90330177 40.74002737 56.00574273 29.10238385 63.5 16.3125 C66.93595166 17.83958963 69.61912454 19.91177045 72.5 22.3125 C62.31384729 49.83569041 38.18450183 78.71864604 15.5 97.3125 C14.37191691 98.27548091 13.24436464 99.23908382 12.1171875 100.203125 C-10.40901427 119.24141731 -37.95244688 137.02054972 -68.55078125 135.6953125 C-78.77217961 134.70451424 -88.55782211 130.89206194 -95.46875 123.08984375 C-107.66956754 106.77900504 -107.48163129 84.80250141 -104.96875 65.3359375 C-104.36240467 61.60203507 -103.49628351 57.96267665 -102.5 54.3125 C-102.2215625 53.27867187 -101.943125 52.24484375 -101.65625 51.1796875 C-97.94048475 38.91125568 -92.10589768 27.83215129 -83.5 18.3125 C-82.56027344 17.25095703 -82.56027344 17.25095703 -81.6015625 16.16796875 C-64.05190716 -2.56360215 -22.77730909 -15.86199703 0 0 Z M-32.22265625 25.2265625 C-38.85259264 34.55255998 -44.5 47.74602278 -44.5 59.3125 C-32.55021639 59.8668714 -22.81387472 58.26378935 -13.5 50.3125 C-7.80904603 44.35003105 -4.91607389 39.05574233 -4.1875 30.75 C-4.63215951 25.85874537 -5.91551625 22.7105739 -9.625 19.4375 C-18.04899107 16.14115567 -26.2066614 18.54212377 -32.22265625 25.2265625 Z " fill="#FFFFFF" transform="translate(285.5,209.6875)"/>
<path d="M0 0 C3.91235528 0.57960819 6.14904283 2.31709568 9 5 C10.06762695 7.69604492 10.06762695 7.69604492 10.67578125 10.79296875 C11.01923584 12.52039307 11.01923584 12.52039307 11.36962891 14.28271484 C12.44268607 20.6105105 13.36017108 26.94818373 14.1875 33.3125 C14.36597127 34.65046614 14.5450052 35.98835734 14.72460938 37.32617188 C15.15524149 40.55009342 15.58027717 43.77464328 16 47 C20.06577308 43.68350195 23.67738462 40.53076671 26.6875 36.1875 C27.35265625 35.24648437 28.0178125 34.30546875 28.703125 33.3359375 C29.93801308 31.5518434 31.1622045 29.76105235 32.38085938 27.96582031 C48.66761724 3.98749582 48.66761724 3.98749582 61 1 C64 1.5625 64 1.5625 66 3 C67 6 67 6 66.14233398 8.21044922 C65.45119507 9.49459717 65.45119507 9.49459717 64.74609375 10.8046875 C64.22829346 11.77035645 63.71049316 12.73602539 63.17700195 13.73095703 C62.31594849 15.2872583 62.31594849 15.2872583 61.4375 16.875 C60.85121826 17.94476074 60.26493652 19.01452148 59.66088867 20.11669922 C50.91777068 35.81696866 40.57989848 50.49530047 30 65 C45.44761798 65.74746539 60.77700816 61.51291692 75.69702148 57.98193359 C90.2770572 54.6052803 90.2770572 54.6052803 96.3125 57.75 C96.96863281 58.07484375 97.62476563 58.3996875 98.30078125 58.734375 C101.20330527 60.89625496 101.87499678 63.42498521 102.625 66.875 C101.94209955 70.28950225 101.53187219 70.91658285 99 73.125 C87.34399244 80.69545063 70.16092097 81.48553894 56.6875 83.6875 C53.90099626 84.1475394 51.11482128 84.60943978 48.32905579 85.07392883 C46.61338075 85.35953787 44.89724101 85.64237338 43.18058777 85.92204285 C40.02464195 86.44391103 37.04018843 86.98660386 34 88 C38.09952958 92.38554327 42.38866446 96.15158197 47.1875 99.75 C60.21699785 109.61087504 71.49143552 119.22659965 75 136 C75 136.99 75 137.98 75 139 C62.62942449 138.21456663 55.0767436 132.81568472 45.62988281 125.28710938 C43.12325832 123.30764198 40.56910149 121.39739571 38 119.5 C36.7315625 118.55640625 36.7315625 118.55640625 35.4375 117.59375 C33.02191956 116.01433202 30.71147882 114.96838529 28 114 C28.2165625 115.92972656 28.2165625 115.92972656 28.4375 117.8984375 C29.55282294 128.47269041 30.23224637 138.98985117 30.3125 149.625 C30.32990234 150.6773584 30.34730469 151.7297168 30.36523438 152.81396484 C30.36028996 160.66198176 29.56224983 168.87550034 26 176 C21.55802861 174.63264533 19.63833582 172.80501008 16.9375 169.0625 C16.28652344 168.18722656 15.63554688 167.31195313 14.96484375 166.41015625 C9.56999607 157.04693155 7.94182403 147.05438815 6.4375 136.5 C5.13150339 127.50409625 3.67078517 118.71290805 1 110 C-9.0725416 116.91098621 -15.49554876 126.07647984 -22.0625 136.1875 C-27.53830261 144.54472293 -34.09744167 151.87148538 -42 158 C-42.66 158 -43.32 158 -44 158 C-45.14966663 142.9904634 -36.69288781 132.16605329 -29 120 C-27.90616291 118.26307568 -26.81241375 116.52609598 -25.71875 114.7890625 C-23.66208813 111.52620791 -21.59889149 108.26762371 -19.53125 105.01171875 C-17.64344795 102.03304862 -15.79400433 99.03647354 -14 96 C-17.40195394 95.23038697 -20.51388147 94.88425583 -23.9987793 94.91821289 C-25.45135384 94.92800926 -25.45135384 94.92800926 -26.93327332 94.93800354 C-27.96978531 94.94943893 -29.0062973 94.96087433 -30.07421875 94.97265625 C-32.29101403 94.98530828 -34.50781099 94.99766881 -36.72460938 95.00976562 C-40.20244642 95.03451107 -43.68019501 95.0624296 -47.15795898 95.09594727 C-50.52588427 95.12635797 -53.893699 95.14399176 -57.26171875 95.16015625 C-58.28810959 95.17361588 -59.31450043 95.1870755 -60.37199402 95.20094299 C-66.81861179 95.22307546 -72.73448618 94.52459131 -79 93 C-79 91.68 -79 90.36 -79 89 C-77.56640625 87.5859375 -77.56640625 87.5859375 -75.5625 86.375 C-74.92441406 85.97023438 -74.28632812 85.56546875 -73.62890625 85.1484375 C-66.129627 81.87237792 -57.8011155 81.44858677 -49.75 80.625 C-38.02231939 79.35929624 -26.54132641 77.41363196 -15 75 C-15.55945313 74.51273437 -16.11890625 74.02546875 -16.6953125 73.5234375 C-22.67788294 68.23338326 -28.34166335 62.70793758 -33.94995117 57.02612305 C-37.0121583 53.93788316 -40.09258839 50.97384385 -43.4375 48.1875 C-50.7449193 41.91503708 -54.93430917 35.42348486 -57 26 C-55.45728733 26.06097679 -53.91567634 26.1500151 -52.375 26.25 C-51.51648438 26.29640625 -50.65796875 26.3428125 -49.7734375 26.390625 C-43.43521297 27.78324898 -38.41165141 33.00774174 -33.5 37.0625 C-32.08388287 38.21942299 -30.66720531 39.37566027 -29.25 40.53125 C-28.18652344 41.39943359 -28.18652344 41.39943359 -27.1015625 42.28515625 C-26.06128906 43.13400391 -26.06128906 43.13400391 -25 44 C-24.34773437 44.53238281 -23.69546875 45.06476563 -23.0234375 45.61328125 C-21.18868002 47.1044936 -19.34570317 48.58486911 -17.5 50.0625 C-16.96181641 50.50279541 -16.42363281 50.94309082 -15.86914062 51.39672852 C-12.98036427 53.69522446 -10.11740098 55.52326134 -6.79492188 57.14624023 C-6.08203003 57.4963768 -5.36913818 57.84651337 -4.63464355 58.20726013 C-4.09521118 58.46886429 -3.55577881 58.73046844 -3 59 C-3.06058594 57.91170898 -3.12117187 56.82341797 -3.18359375 55.70214844 C-3.4105479 51.60955322 -3.63313218 47.51672941 -3.85449219 43.42382812 C-3.9503317 41.66269659 -4.04730825 39.90162651 -4.14550781 38.140625 C-5.78598584 8.67897876 -5.78598584 8.67897876 0 0 Z " fill="#FFFFFF" transform="translate(887,47)"/>
</svg>
